<svg t="1608623675122" class="icon" viewBox="0 0 1024 1024" version="1.1" xmlns="http://www.w3.org/2000/svg" p-id="1150" width="16" height="16"><path d="M0 0m56.888889 0l910.222222 0q56.888889 0 56.888889 56.888889l0 0q0 56.888889-56.888889 56.888889l-910.222222 0q-56.888889 0-56.888889-56.888889l0 0q0-56.888889 56.888889-56.888889Z" p-id="1151"></path><path d="M0 910.222222m56.888889 0l910.222222 0q56.888889 0 56.888889 56.888889l0 0q0 56.888889-56.888889 56.888889l-910.222222 0q-56.888889 0-56.888889-56.888889l0 0q0-56.888889 56.888889-56.888889Z" p-id="1152"></path><path d="M0 455.111111m56.888889 0l910.222222 0q56.888889 0 56.888889 56.888889l0 0q0 56.888889-56.888889 56.888889l-910.222222 0q-56.888889 0-56.888889-56.888889l0 0q0-56.888889 56.888889-56.888889Z" p-id="1153"></path><path d="M0 227.555556m56.888889 0l910.222222 0q56.888889 0 56.888889 56.888888l0 0q0 56.888889-56.888889 56.888889l-910.222222 0q-56.888889 0-56.888889-56.888889l0 0q0-56.888889 56.888889-56.888888Z" p-id="1154"></path><path d="M0 682.666667m56.888889 0l910.222222 0q56.888889 0 56.888889 56.888889l0 0q0 56.888889-56.888889 56.888888l-910.222222 0q-56.888889 0-56.888889-56.888888l0 0q0-56.888889 56.888889-56.888889Z" p-id="1155"></path></svg>