<svg t="1608616967156" class="icon" viewBox="0 0 1024 1024" version="1.1" xmlns="http://www.w3.org/2000/svg" p-id="764" width="16" height="16"><path d="M0 56.888889m56.888889 0l910.222222 0q56.888889 0 56.888889 56.888889l0 0q0 56.888889-56.888889 56.888889l-910.222222 0q-56.888889 0-56.888889-56.888889l0 0q0-56.888889 56.888889-56.888889Z" p-id="765"></path><path d="M0 853.333333m56.888889 0l910.222222 0q56.888889 0 56.888889 56.888889l0 0q0 56.888889-56.888889 56.888889l-910.222222 0q-56.888889 0-56.888889-56.888889l0 0q0-56.888889 56.888889-56.888889Z" p-id="766"></path><path d="M0 455.111111m56.888889 0l910.222222 0q56.888889 0 56.888889 56.888889l0 0q0 56.888889-56.888889 56.888889l-910.222222 0q-56.888889 0-56.888889-56.888889l0 0q0-56.888889 56.888889-56.888889Z" p-id="767"></path></svg>