<svg t="1608623654589" class="icon" viewBox="0 0 1024 1024" version="1.1" xmlns="http://www.w3.org/2000/svg" p-id="892" width="16" height="16"><path d="M0 28.444444m56.888889 0l910.222222 0q56.888889 0 56.888889 56.888889l0 0q0 56.888889-56.888889 56.888889l-910.222222 0q-56.888889 0-56.888889-56.888889l0 0q0-56.888889 56.888889-56.888889Z" p-id="893"></path><path d="M0 881.777778m56.888889 0l910.222222 0q56.888889 0 56.888889 56.888889l0 0q0 56.888889-56.888889 56.888889l-910.222222 0q-56.888889 0-56.888889-56.888889l0 0q0-56.888889 56.888889-56.888889Z" p-id="894"></path><path d="M0 312.888889m56.888889 0l910.222222 0q56.888889 0 56.888889 56.888889l0 0q0 56.888889-56.888889 56.888889l-910.222222 0q-56.888889 0-56.888889-56.888889l0 0q0-56.888889 56.888889-56.888889Z" p-id="895"></path><path d="M0 597.333333m56.888889 0l910.222222 0q56.888889 0 56.888889 56.888889l0 0q0 56.888889-56.888889 56.888889l-910.222222 0q-56.888889 0-56.888889-56.888889l0 0q0-56.888889 56.888889-56.888889Z" p-id="896"></path></svg>